<?xml version="1.0" standalone="no"?>
<!DOCTYPE svg PUBLIC "-//W3C//DTD SVG 20010904//EN"
 "http://www.w3.org/TR/2001/REC-SVG-20010904/DTD/svg10.dtd">
<svg version="1.0" xmlns="http://www.w3.org/2000/svg"
 width="700.000000pt" height="700.000000pt" viewBox="0 0 700.000000 700.000000"
 preserveAspectRatio="xMidYMid meet">
<metadata>
Created by potrace 1.14, written by Peter Selinger 2001-2017
</metadata>
<g transform="translate(0.000000,700.000000) scale(0.100000,-0.100000)"
fill="#000000" stroke="none">
<path d="M1110 5829 c-237 -26 -431 -186 -503 -414 l-22 -70 0 -1550 0 -1550
25 -79 c60 -196 214 -344 414 -396 l71 -19 -547 0 -548 -1 0 -292 0 -293 3498
1 3497 0 3 292 2 292 -552 1 c-488 0 -546 2 -491 14 219 48 398 229 444 450
10 46 12 406 13 1595 l0 1535 -22 70 c-61 197 -220 349 -422 401 -60 16 -245
17 -2435 18 -1303 1 -2395 -2 -2425 -5z m4721 -591 c3 -43 4 -2885 0 -2896 -3
-11 -433 -13 -2332 -11 -2125 2 -2329 3 -2330 18 -3 57 -3 2869 0 2884 3 16
122 17 2332 17 1856 0 2329 -3 2330 -12z"/>
<path d="M3790 4646 c0 -342 8 -309 -80 -321 -24 -4 -47 -8 -50 -10 -3 -2 -21
-6 -40 -9 -223 -36 -575 -184 -769 -323 -106 -77 -293 -255 -368 -353 -190
-246 -332 -551 -413 -885 -11 -49 -23 -97 -26 -105 -2 -8 6 -2 18 14 199 250
403 421 643 540 176 87 302 130 500 171 103 21 123 24 280 40 17 2 92 7 168
10 l137 6 1 -303 c1 -167 0 -312 -1 -323 -2 -21 -7 -25 114 90 54 51 280 262
315 294 23 21 163 152 350 327 106 99 142 133 265 248 102 95 134 136 109 136
-5 0 -40 31 -79 68 -73 69 -299 280 -345 323 -61 56 -254 236 -284 264 -35 34
-241 225 -295 275 -19 18 -58 54 -87 81 -28 27 -54 49 -57 49 -3 0 -6 -137 -6
-304z"/>
</g>
</svg>
